<?xml version="1.0" encoding="UTF-8"?>
<svg xmlns="http://www.w3.org/2000/svg" xmlns:xlink="http://www.w3.org/1999/xlink" width="45px" height="45px" viewBox="0 0 45 45" version="1.1">
<g id="surface1">
<path style="fill:none;stroke-width:1;stroke-linecap:round;stroke-linejoin:miter;stroke:rgb(13.333334%,13.333334%,13.333334%);stroke-opacity:1;stroke-miterlimit:4;" d="M 14.5 8 C 14.5 6.61875 13.38125 5.5 12 5.5 C 10.61875 5.5 9.5 6.61875 9.5 8 C 9.5 9.38125 10.61875 10.5 12 10.5 C 13.38125 10.5 14.5 9.38125 14.5 8 Z M 14.5 8 " transform="matrix(1.875,0,0,1.875,0,0)"/>
<path style="fill:none;stroke-width:1;stroke-linecap:butt;stroke-linejoin:miter;stroke:rgb(13.333334%,13.333334%,13.333334%);stroke-opacity:1;stroke-miterlimit:4;" d="M 13.76875 6.5 C 13.966667 6.158333 14.260417 5.88125 14.614583 5.70625 C 14.970833 5.53125 15.36875 5.464583 15.760417 5.516667 C 16.154167 5.56875 16.520833 5.735417 16.81875 5.995833 C 17.116667 6.25625 17.329167 6.6 17.43125 6.983333 C 17.533333 7.364583 17.520833 7.76875 17.39375 8.14375 C 17.266667 8.516667 17.03125 8.845833 16.716667 9.0875 C 16.404167 9.327083 16.025 9.470833 15.63125 9.495833 C 15.235417 9.520833 14.841667 9.429167 14.5 9.23125 " transform="matrix(1.875,0,0,1.875,0,0)"/>
<path style="fill:none;stroke-width:1;stroke-linecap:butt;stroke-linejoin:miter;stroke:rgb(13.333334%,13.333334%,13.333334%);stroke-opacity:1;stroke-miterlimit:4;" d="M 10.23125 6.5 C 10.033333 6.158333 9.739583 5.88125 9.385417 5.70625 C 9.029167 5.53125 8.63125 5.464583 8.239583 5.516667 C 7.845833 5.56875 7.479167 5.735417 7.18125 5.995833 C 6.883333 6.25625 6.670833 6.6 6.56875 6.983333 C 6.466667 7.364583 6.479167 7.76875 6.60625 8.14375 C 6.733333 8.516667 6.96875 8.845833 7.283333 9.0875 C 7.595833 9.327083 7.975 9.470833 8.36875 9.495833 C 8.764583 9.520833 9.158333 9.429167 9.5 9.23125 " transform="matrix(1.875,0,0,1.875,0,0)"/>
<path style="fill:none;stroke-width:1;stroke-linecap:round;stroke-linejoin:miter;stroke:rgb(13.333334%,13.333334%,13.333334%);stroke-opacity:1;stroke-miterlimit:4;" d="M 12 12.5 C 16.079167 12.5 17.133333 15.802083 17.40625 17.50625 C 17.491667 18.052083 17.052083 18.5 16.5 18.5 L 7.5 18.5 C 6.947917 18.5 6.508333 18.052083 6.59375 17.50625 C 6.866667 15.802083 7.91875 12.5 12 12.5 Z M 12 12.5 " transform="matrix(1.875,0,0,1.875,0,0)"/>
<path style=" stroke:none;fill-rule:nonzero;fill:rgb(13.333334%,13.333334%,13.333334%);fill-opacity:1;" d="M 36.179688 28.90625 L 35.273438 29.132812 Z M 24.539062 23.597656 L 23.847656 22.964844 L 22.683594 24.242188 L 24.382812 24.523438 Z M 32.214844 30.9375 L 31.3125 31.199219 L 31.511719 31.875 L 32.214844 31.875 Z M 29.0625 22.5 C 30.988281 22.5 32.34375 23.441406 33.335938 24.761719 C 34.34375 26.109375 34.941406 27.808594 35.273438 29.132812 L 37.089844 28.679688 C 36.730469 27.246094 36.0625 25.273438 34.832031 23.636719 C 33.585938 21.976562 31.726562 20.625 29.0625 20.625 Z M 25.230469 24.230469 C 26.167969 23.203125 27.394531 22.5 29.0625 22.5 L 29.0625 20.625 C 26.78125 20.625 25.074219 21.621094 23.847656 22.964844 Z M 24.382812 24.523438 C 28.699219 25.238281 30.523438 28.460938 31.3125 31.199219 L 33.117188 30.675781 C 32.230469 27.625 30.035156 23.5625 24.691406 22.671875 Z M 34.492188 30 L 32.214844 30 L 32.214844 31.875 L 34.492188 31.875 Z M 35.273438 29.132812 C 35.371094 29.535156 35.078125 30 34.492188 30 L 34.492188 31.875 C 36.125 31.875 37.527344 30.425781 37.089844 28.679688 Z M 35.273438 29.132812 "/>
<path style=" stroke:none;fill-rule:nonzero;fill:rgb(13.333334%,13.333334%,13.333334%);fill-opacity:1;" d="M 20.460938 23.597656 L 20.617188 24.523438 L 22.316406 24.242188 L 21.152344 22.964844 Z M 8.820312 28.90625 L 9.726562 29.132812 Z M 12.785156 30.9375 L 12.785156 31.875 L 13.488281 31.875 L 13.6875 31.199219 Z M 15.9375 22.5 C 17.605469 22.5 18.832031 23.203125 19.769531 24.230469 L 21.152344 22.964844 C 19.925781 21.621094 18.21875 20.625 15.9375 20.625 Z M 9.726562 29.132812 C 10.058594 27.808594 10.652344 26.109375 11.664062 24.761719 C 12.65625 23.441406 14.011719 22.5 15.9375 22.5 L 15.9375 20.625 C 13.273438 20.625 11.414062 21.976562 10.167969 23.636719 C 8.9375 25.273438 8.269531 27.246094 7.910156 28.679688 Z M 10.507812 30 C 9.921875 30 9.628906 29.535156 9.726562 29.132812 L 7.910156 28.679688 C 7.472656 30.425781 8.875 31.875 10.507812 31.875 Z M 12.785156 30 L 10.507812 30 L 10.507812 31.875 L 12.785156 31.875 Z M 13.6875 31.199219 C 14.476562 28.460938 16.300781 25.238281 20.617188 24.523438 L 20.308594 22.671875 C 14.964844 23.5625 12.769531 27.625 11.882812 30.675781 Z M 13.6875 31.199219 "/>
</g>
</svg>
