<?xml version="1.0" encoding="UTF-8"?>
<svg xmlns="http://www.w3.org/2000/svg" xmlns:xlink="http://www.w3.org/1999/xlink" width="45px" height="45px" viewBox="0 0 45 45" version="1.1">
<g id="surface1">
<path style="fill:none;stroke-width:1;stroke-linecap:round;stroke-linejoin:miter;stroke:rgb(13.333334%,13.333334%,13.333334%);stroke-opacity:1;stroke-miterlimit:4;" d="M 10.5 8 C 10.5 6.61875 9.38125 5.5 8 5.5 C 6.61875 5.5 5.5 6.61875 5.5 8 C 5.5 9.38125 6.61875 10.5 8 10.5 C 9.38125 10.5 10.5 9.38125 10.5 8 Z M 10.5 8 " transform="matrix(1.875,0,0,1.875,0,0)"/>
<path style="fill:none;stroke-width:1;stroke-linecap:butt;stroke-linejoin:miter;stroke:rgb(13.333334%,13.333334%,13.333334%);stroke-opacity:1;stroke-miterlimit:4;" d="M 11.76875 8.5 C 12.033333 8.041667 12.470833 7.70625 12.983333 7.56875 C 13.49375 7.43125 14.039583 7.502083 14.5 7.76875 C 14.960417 8.033333 15.29375 8.470833 15.43125 8.983333 C 15.56875 9.49375 15.497917 10.039583 15.23125 10.5 C 14.966667 10.960417 14.529167 11.29375 14.016667 11.43125 C 13.50625 11.56875 12.960417 11.497917 12.5 11.23125 C 12.039583 10.966667 11.70625 10.529167 11.56875 10.016667 C 11.43125 9.50625 11.502083 8.958333 11.76875 8.5 Z M 11.76875 8.5 " transform="matrix(1.875,0,0,1.875,0,0)"/>
<path style=" stroke:none;fill-rule:nonzero;fill:rgb(13.333334%,13.333334%,13.333334%);fill-opacity:1;" d="M 25.136719 32.824219 L 26.0625 32.679688 Z M 23.4375 33.75 L 6.5625 33.75 L 6.5625 35.625 L 23.4375 35.625 Z M 5.789062 32.972656 C 6.035156 31.445312 6.621094 29.277344 7.996094 27.507812 C 9.335938 25.78125 11.472656 24.375 15 24.375 L 15 22.5 C 10.878906 22.5 8.199219 24.1875 6.515625 26.359375 C 4.863281 28.484375 4.207031 31.007812 3.9375 32.679688 Z M 15 24.375 C 18.527344 24.375 20.664062 25.78125 22.003906 27.507812 C 23.378906 29.277344 23.964844 31.445312 24.210938 32.972656 L 26.0625 32.679688 C 25.792969 31.007812 25.136719 28.484375 23.484375 26.359375 C 21.800781 24.1875 19.125 22.5 15 22.5 Z M 6.5625 33.75 C 6.015625 33.75 5.730469 33.34375 5.789062 32.972656 L 3.9375 32.679688 C 3.671875 34.355469 5.039062 35.625 6.5625 35.625 Z M 23.4375 35.625 C 24.960938 35.625 26.328125 34.355469 26.0625 32.679688 L 24.210938 32.972656 C 24.269531 33.34375 23.984375 33.75 23.4375 33.75 Z M 23.4375 35.625 "/>
<path style=" stroke:none;fill-rule:nonzero;fill:rgb(13.333334%,13.333334%,13.333334%);fill-opacity:1;" d="M 32.429688 32.65625 L 31.523438 32.882812 Z M 22.125 26.214844 L 21.625 25.421875 L 20.65625 26.035156 L 21.449219 26.863281 Z M 25.136719 32.824219 L 26.0625 32.679688 Z M 30.742188 33.75 L 23.4375 33.75 L 23.4375 35.625 L 30.742188 35.625 Z M 31.523438 32.882812 C 31.621094 33.285156 31.328125 33.75 30.742188 33.75 L 30.742188 35.625 C 32.375 35.625 33.777344 34.175781 33.339844 32.429688 Z M 25.3125 26.25 C 27.238281 26.25 28.59375 27.191406 29.585938 28.511719 C 30.597656 29.859375 31.191406 31.558594 31.523438 32.882812 L 33.339844 32.429688 C 32.980469 30.996094 32.3125 29.023438 31.082031 27.386719 C 29.835938 25.726562 27.976562 24.375 25.3125 24.375 Z M 22.628906 27.003906 C 23.359375 26.542969 24.238281 26.25 25.3125 26.25 L 25.3125 24.375 C 23.871094 24.375 22.648438 24.773438 21.625 25.421875 Z M 21.449219 26.863281 C 23.222656 28.71875 23.933594 31.246094 24.210938 32.972656 L 26.0625 32.679688 C 25.761719 30.804688 24.96875 27.828125 22.804688 25.566406 Z M 24.210938 32.972656 C 24.269531 33.34375 23.984375 33.75 23.4375 33.75 L 23.4375 35.625 C 24.960938 35.625 26.328125 34.355469 26.0625 32.679688 Z M 24.210938 32.972656 "/>
<path style="fill:none;stroke-width:0.5;stroke-linecap:round;stroke-linejoin:miter;stroke:rgb(13.333334%,13.333334%,13.333334%);stroke-opacity:1;stroke-miterlimit:4;" d="M 16.5 5.25 L 20.5 5.25 L 20.75 5.5 L 16.5 5.75 L 16.25 5.5 Z M 16.5 5.25 " transform="matrix(1.875,0,0,1.875,0,0)"/>
<path style="fill:none;stroke-width:0.5;stroke-linecap:round;stroke-linejoin:miter;stroke:rgb(13.333334%,13.333334%,13.333334%);stroke-opacity:1;stroke-miterlimit:4;" d="M 19 3.25 L 23 3.25 L 23.25 3.5 L 19 3.75 L 18.75 3.5 Z M 19 3.25 " transform="matrix(0.000000000000000115,1.875,-1.875,0.000000000000000115,41.25,-29.0625)"/>
</g>
</svg>
